<mxfile host="app.diagrams.net" modified="2022-08-29T06:33:10.125Z" agent="5.0 (Windows NT 10.0; Win64; x64) AppleWebKit/537.36 (KHTML, like Gecko) Chrome/104.0.0.0 Safari/537.36" etag="t_G7Z82V-EnKn36RXNM-" version="20.2.7" type="github">
  <diagram id="cLFzMHlZY-w-j3A8pgei" name="Page-1">
    <mxGraphModel dx="1673" dy="934" grid="1" gridSize="10" guides="1" tooltips="1" connect="1" arrows="1" fold="1" page="1" pageScale="1" pageWidth="850" pageHeight="1100" math="0" shadow="0">
      <root>
        <mxCell id="0" />
        <mxCell id="1" parent="0" />
        <mxCell id="1fBW9ayHnFDUyYuJ9Qg0-21" value="" style="rounded=0;whiteSpace=wrap;html=1;fillColor=#dae8fc;strokeColor=#6c8ebf;" vertex="1" parent="1">
          <mxGeometry y="230" width="380" height="370" as="geometry" />
        </mxCell>
        <mxCell id="1fBW9ayHnFDUyYuJ9Qg0-11" value="" style="rounded=0;whiteSpace=wrap;html=1;fillColor=#d5e8d4;strokeColor=#82b366;" vertex="1" parent="1">
          <mxGeometry x="440" y="240" width="390" height="240" as="geometry" />
        </mxCell>
        <mxCell id="1fBW9ayHnFDUyYuJ9Qg0-7" style="edgeStyle=orthogonalEdgeStyle;rounded=0;orthogonalLoop=1;jettySize=auto;html=1;" edge="1" parent="1" source="1fBW9ayHnFDUyYuJ9Qg0-3" target="1fBW9ayHnFDUyYuJ9Qg0-6">
          <mxGeometry relative="1" as="geometry">
            <Array as="points">
              <mxPoint x="540" y="360" />
              <mxPoint x="540" y="360" />
            </Array>
          </mxGeometry>
        </mxCell>
        <mxCell id="1fBW9ayHnFDUyYuJ9Qg0-28" value="POST" style="edgeLabel;html=1;align=center;verticalAlign=middle;resizable=0;points=[];" vertex="1" connectable="0" parent="1fBW9ayHnFDUyYuJ9Qg0-7">
          <mxGeometry x="0.16" relative="1" as="geometry">
            <mxPoint as="offset" />
          </mxGeometry>
        </mxCell>
        <mxCell id="1fBW9ayHnFDUyYuJ9Qg0-3" value="Create/Buat" style="rounded=1;whiteSpace=wrap;html=1;" vertex="1" parent="1">
          <mxGeometry x="480" y="270" width="120" height="60" as="geometry" />
        </mxCell>
        <mxCell id="1fBW9ayHnFDUyYuJ9Qg0-9" style="edgeStyle=orthogonalEdgeStyle;rounded=0;orthogonalLoop=1;jettySize=auto;html=1;" edge="1" parent="1" source="1fBW9ayHnFDUyYuJ9Qg0-6" target="1fBW9ayHnFDUyYuJ9Qg0-8">
          <mxGeometry relative="1" as="geometry" />
        </mxCell>
        <mxCell id="1fBW9ayHnFDUyYuJ9Qg0-29" value="Tulis" style="edgeLabel;html=1;align=center;verticalAlign=middle;resizable=0;points=[];" vertex="1" connectable="0" parent="1fBW9ayHnFDUyYuJ9Qg0-9">
          <mxGeometry x="-0.34" y="-1" relative="1" as="geometry">
            <mxPoint as="offset" />
          </mxGeometry>
        </mxCell>
        <mxCell id="1fBW9ayHnFDUyYuJ9Qg0-6" value="Controller&lt;br&gt;Validasi Data" style="rounded=1;whiteSpace=wrap;html=1;" vertex="1" parent="1">
          <mxGeometry x="480" y="390" width="120" height="60" as="geometry" />
        </mxCell>
        <mxCell id="1fBW9ayHnFDUyYuJ9Qg0-8" value="Database" style="shape=cylinder3;whiteSpace=wrap;html=1;boundedLbl=1;backgroundOutline=1;size=15;" vertex="1" parent="1">
          <mxGeometry x="740" y="380" width="60" height="80" as="geometry" />
        </mxCell>
        <mxCell id="1fBW9ayHnFDUyYuJ9Qg0-13" style="edgeStyle=orthogonalEdgeStyle;rounded=0;orthogonalLoop=1;jettySize=auto;html=1;entryX=0.5;entryY=0;entryDx=0;entryDy=0;" edge="1" parent="1" source="1fBW9ayHnFDUyYuJ9Qg0-10" target="1fBW9ayHnFDUyYuJ9Qg0-14">
          <mxGeometry relative="1" as="geometry">
            <mxPoint x="220" y="390" as="targetPoint" />
            <Array as="points">
              <mxPoint x="200" y="370" />
              <mxPoint x="200" y="370" />
            </Array>
          </mxGeometry>
        </mxCell>
        <mxCell id="1fBW9ayHnFDUyYuJ9Qg0-18" value="Menulis Data" style="edgeLabel;html=1;align=center;verticalAlign=middle;resizable=0;points=[];" vertex="1" connectable="0" parent="1fBW9ayHnFDUyYuJ9Qg0-13">
          <mxGeometry x="0.2647" y="-1" relative="1" as="geometry">
            <mxPoint x="1" y="-8" as="offset" />
          </mxGeometry>
        </mxCell>
        <mxCell id="1fBW9ayHnFDUyYuJ9Qg0-10" value="Edit" style="rounded=0;whiteSpace=wrap;html=1;" vertex="1" parent="1">
          <mxGeometry x="140" y="280" width="120" height="60" as="geometry" />
        </mxCell>
        <mxCell id="1fBW9ayHnFDUyYuJ9Qg0-12" value="Database" style="shape=cylinder3;whiteSpace=wrap;html=1;boundedLbl=1;backgroundOutline=1;size=15;" vertex="1" parent="1">
          <mxGeometry x="20" y="510" width="60" height="80" as="geometry" />
        </mxCell>
        <mxCell id="1fBW9ayHnFDUyYuJ9Qg0-15" style="edgeStyle=orthogonalEdgeStyle;rounded=0;orthogonalLoop=1;jettySize=auto;html=1;" edge="1" parent="1" source="1fBW9ayHnFDUyYuJ9Qg0-14" target="1fBW9ayHnFDUyYuJ9Qg0-12">
          <mxGeometry relative="1" as="geometry" />
        </mxCell>
        <mxCell id="1fBW9ayHnFDUyYuJ9Qg0-20" value="Mengambil/Menulis" style="edgeLabel;html=1;align=center;verticalAlign=middle;resizable=0;points=[];" vertex="1" connectable="0" parent="1fBW9ayHnFDUyYuJ9Qg0-15">
          <mxGeometry x="0.3202" y="-1" relative="1" as="geometry">
            <mxPoint as="offset" />
          </mxGeometry>
        </mxCell>
        <mxCell id="1fBW9ayHnFDUyYuJ9Qg0-16" style="edgeStyle=orthogonalEdgeStyle;rounded=0;orthogonalLoop=1;jettySize=auto;html=1;entryX=1;entryY=0.5;entryDx=0;entryDy=0;" edge="1" parent="1" source="1fBW9ayHnFDUyYuJ9Qg0-14" target="1fBW9ayHnFDUyYuJ9Qg0-10">
          <mxGeometry relative="1" as="geometry">
            <mxPoint x="330" y="310" as="targetPoint" />
            <Array as="points">
              <mxPoint x="340" y="430" />
              <mxPoint x="340" y="310" />
            </Array>
          </mxGeometry>
        </mxCell>
        <mxCell id="1fBW9ayHnFDUyYuJ9Qg0-17" value="Tampilkan Data" style="edgeLabel;html=1;align=center;verticalAlign=middle;resizable=0;points=[];" vertex="1" connectable="0" parent="1fBW9ayHnFDUyYuJ9Qg0-16">
          <mxGeometry x="0.2142" y="3" relative="1" as="geometry">
            <mxPoint y="30" as="offset" />
          </mxGeometry>
        </mxCell>
        <mxCell id="1fBW9ayHnFDUyYuJ9Qg0-14" value="Controller&lt;br&gt;Validasi&lt;br&gt;Mengambil Data&lt;br&gt;Menulis Data" style="rounded=0;whiteSpace=wrap;html=1;" vertex="1" parent="1">
          <mxGeometry x="140" y="400" width="120" height="60" as="geometry" />
        </mxCell>
        <mxCell id="1fBW9ayHnFDUyYuJ9Qg0-22" value="" style="rounded=0;whiteSpace=wrap;html=1;fillColor=#f8cecc;strokeColor=#b85450;" vertex="1" parent="1">
          <mxGeometry x="440" y="500" width="390" height="240" as="geometry" />
        </mxCell>
        <mxCell id="1fBW9ayHnFDUyYuJ9Qg0-23" style="edgeStyle=orthogonalEdgeStyle;rounded=0;orthogonalLoop=1;jettySize=auto;html=1;" edge="1" parent="1" source="1fBW9ayHnFDUyYuJ9Qg0-24" target="1fBW9ayHnFDUyYuJ9Qg0-26">
          <mxGeometry relative="1" as="geometry">
            <Array as="points">
              <mxPoint x="540" y="630" />
              <mxPoint x="540" y="630" />
            </Array>
          </mxGeometry>
        </mxCell>
        <mxCell id="1fBW9ayHnFDUyYuJ9Qg0-24" value="Delete/Hapus" style="rounded=1;whiteSpace=wrap;html=1;" vertex="1" parent="1">
          <mxGeometry x="480" y="530" width="120" height="60" as="geometry" />
        </mxCell>
        <mxCell id="1fBW9ayHnFDUyYuJ9Qg0-25" style="edgeStyle=orthogonalEdgeStyle;rounded=0;orthogonalLoop=1;jettySize=auto;html=1;" edge="1" parent="1" source="1fBW9ayHnFDUyYuJ9Qg0-26" target="1fBW9ayHnFDUyYuJ9Qg0-27">
          <mxGeometry relative="1" as="geometry" />
        </mxCell>
        <mxCell id="1fBW9ayHnFDUyYuJ9Qg0-26" value="Controller&lt;br&gt;Pastikan Data Ada" style="rounded=1;whiteSpace=wrap;html=1;" vertex="1" parent="1">
          <mxGeometry x="480" y="650" width="120" height="60" as="geometry" />
        </mxCell>
        <mxCell id="1fBW9ayHnFDUyYuJ9Qg0-27" value="Database" style="shape=cylinder3;whiteSpace=wrap;html=1;boundedLbl=1;backgroundOutline=1;size=15;" vertex="1" parent="1">
          <mxGeometry x="740" y="640" width="60" height="80" as="geometry" />
        </mxCell>
        <mxCell id="1fBW9ayHnFDUyYuJ9Qg0-35" value="" style="rounded=0;whiteSpace=wrap;html=1;fillColor=#f5f5f5;strokeColor=#666666;fontColor=#333333;" vertex="1" parent="1">
          <mxGeometry x="440" y="770" width="390" height="240" as="geometry" />
        </mxCell>
        <mxCell id="1fBW9ayHnFDUyYuJ9Qg0-44" style="edgeStyle=orthogonalEdgeStyle;rounded=0;orthogonalLoop=1;jettySize=auto;html=1;entryX=0.5;entryY=0;entryDx=0;entryDy=0;" edge="1" parent="1" source="1fBW9ayHnFDUyYuJ9Qg0-37" target="1fBW9ayHnFDUyYuJ9Qg0-39">
          <mxGeometry relative="1" as="geometry" />
        </mxCell>
        <mxCell id="1fBW9ayHnFDUyYuJ9Qg0-48" value="GET" style="edgeLabel;html=1;align=center;verticalAlign=middle;resizable=0;points=[];" vertex="1" connectable="0" parent="1fBW9ayHnFDUyYuJ9Qg0-44">
          <mxGeometry x="-0.1952" y="1" relative="1" as="geometry">
            <mxPoint as="offset" />
          </mxGeometry>
        </mxCell>
        <mxCell id="1fBW9ayHnFDUyYuJ9Qg0-37" value="Read/Membaca" style="rounded=1;whiteSpace=wrap;html=1;" vertex="1" parent="1">
          <mxGeometry x="550" y="780" width="120" height="60" as="geometry" />
        </mxCell>
        <mxCell id="1fBW9ayHnFDUyYuJ9Qg0-38" style="edgeStyle=orthogonalEdgeStyle;rounded=0;orthogonalLoop=1;jettySize=auto;html=1;" edge="1" parent="1" source="1fBW9ayHnFDUyYuJ9Qg0-39" target="1fBW9ayHnFDUyYuJ9Qg0-40">
          <mxGeometry relative="1" as="geometry" />
        </mxCell>
        <mxCell id="1fBW9ayHnFDUyYuJ9Qg0-41" value="Baca" style="edgeLabel;html=1;align=center;verticalAlign=middle;resizable=0;points=[];" vertex="1" connectable="0" parent="1fBW9ayHnFDUyYuJ9Qg0-38">
          <mxGeometry x="-0.1786" relative="1" as="geometry">
            <mxPoint as="offset" />
          </mxGeometry>
        </mxCell>
        <mxCell id="1fBW9ayHnFDUyYuJ9Qg0-47" style="edgeStyle=orthogonalEdgeStyle;rounded=0;orthogonalLoop=1;jettySize=auto;html=1;entryX=0;entryY=0.5;entryDx=0;entryDy=0;" edge="1" parent="1" source="1fBW9ayHnFDUyYuJ9Qg0-39" target="1fBW9ayHnFDUyYuJ9Qg0-37">
          <mxGeometry relative="1" as="geometry">
            <Array as="points">
              <mxPoint x="530" y="940" />
              <mxPoint x="530" y="810" />
            </Array>
          </mxGeometry>
        </mxCell>
        <mxCell id="1fBW9ayHnFDUyYuJ9Qg0-49" value="Response" style="edgeLabel;html=1;align=center;verticalAlign=middle;resizable=0;points=[];" vertex="1" connectable="0" parent="1fBW9ayHnFDUyYuJ9Qg0-47">
          <mxGeometry x="-0.1516" y="-1" relative="1" as="geometry">
            <mxPoint as="offset" />
          </mxGeometry>
        </mxCell>
        <mxCell id="1fBW9ayHnFDUyYuJ9Qg0-39" value="Controller" style="rounded=1;whiteSpace=wrap;html=1;" vertex="1" parent="1">
          <mxGeometry x="550" y="910" width="120" height="60" as="geometry" />
        </mxCell>
        <mxCell id="1fBW9ayHnFDUyYuJ9Qg0-40" value="Database" style="shape=cylinder3;whiteSpace=wrap;html=1;boundedLbl=1;backgroundOutline=1;size=15;" vertex="1" parent="1">
          <mxGeometry x="740" y="900" width="60" height="80" as="geometry" />
        </mxCell>
      </root>
    </mxGraphModel>
  </diagram>
</mxfile>
